<svg id="Calque_1" data-name="Calque 1" xmlns="http://www.w3.org/2000/svg" viewBox="0 0 183.33 121"><defs><style>.cls-1{fill:#ffc83c;}</style></defs><title>apres</title><path class="cls-1" d="M120.88,78.9,97.79,99.67a11.74,11.74,0,0,0-2.85,3.77h-59A14.69,14.69,0,0,1,21.27,88.76V78.9Z"/><path class="cls-1" d="M123.42,50.74H21.27V40.88A14.69,14.69,0,0,1,35.95,26.21H99.87a11.54,11.54,0,0,0,2.36,3.34Z"/><path class="cls-1" d="M162.07,40.88V54.51l-28.3-28.3h13.62A14.69,14.69,0,0,1,162.07,40.88Z"/><path class="cls-1" d="M130.42,103.43,162.07,75v13.8a14.69,14.69,0,0,1-14.68,14.68Z"/><path d="M147.39,8.61H35.95A32.37,32.37,0,0,0,3.67,40.88V88.76A32.37,32.37,0,0,0,35.95,121H147.39a32.37,32.37,0,0,0,32.28-32.28V40.88A32.37,32.37,0,0,0,147.39,8.61Zm0,17.6a14.69,14.69,0,0,1,14.68,14.68V54.51l-28.3-28.3ZM21.27,40.88A14.69,14.69,0,0,1,35.95,26.21H99.87a11.54,11.54,0,0,0,2.36,3.34l21.19,21.19H21.27Zm0,47.87V78.9h99.62L97.79,99.67a11.74,11.74,0,0,0-2.85,3.77h-59A14.69,14.69,0,0,1,21.27,88.76Zm140.8,0a14.69,14.69,0,0,1-14.68,14.68h-17L162.07,75Z"/><path d="M112.4,8.61h-2.92A10.16,10.16,0,0,1,112.4,8.61Z"/><path d="M107.58,117a11.06,11.06,0,0,1-1.55.11,10.93,10.93,0,0,1-1.51-.11Z"/></svg>