<svg id="Calque_1" data-name="Calque 1" xmlns="http://www.w3.org/2000/svg" viewBox="0 0 50 33"><defs><style>.cls-1{fill:#ffc83c;}.cls-2{fill:none;stroke-linecap:round;stroke-linejoin:round;stroke-width:7px;}.cls-2,.cls-3{stroke:#000;}.cls-3{fill:#fff;stroke-miterlimit:10;stroke-width:8px;}</style></defs><title>SVGGG</title><rect class="cls-1" x="2.5" y="3.03" width="45" height="26.94" rx="6.67" ry="6.67"/><path d="M40.83,5.53A4.17,4.17,0,0,1,45,9.7V23.3a4.17,4.17,0,0,1-4.17,4.17H9.17A4.17,4.17,0,0,1,5,23.3V9.7A4.17,4.17,0,0,1,9.17,5.53H40.83m0-5H9.17A9.2,9.2,0,0,0,0,9.7V23.3a9.2,9.2,0,0,0,9.17,9.17H40.83A9.2,9.2,0,0,0,50,23.3V9.7A9.2,9.2,0,0,0,40.83.53Z"/><polyline class="cls-2" points="20.92 4 7.03 16.5 19.53 29"/><line class="cls-3" x1="10.42" y1="16.5" x2="48.61" y2="16.5"/></svg>